{
  "accessors": [
    {
      "bufferView": 2,
      "componentType": 5126,
      "count": 65532,
      "max": [
        84.185813903808594,
        299.62823486328125,
        55.519828796386719
      ],
      "min": [
        -92.503486633300781,
        129.04072570800781,
        -114.58775329589844
      ],
      "type": "VEC3"
    },
    {
      "bufferView": 2,
      "byteOffset": 786384,
      "componentType": 5126,
      "count": 65532,
      "max": [
        0.99999397993087769,
        0.99955719709396362,
        0.99996519088745117
      ],
      "min": [
        -0.99991708993911743,
        -0.99937069416046143,
        -0.99996429681777954
      ],
      "type": "VEC3"
    },
    {
      "bufferView": 3,
      "componentType": 5126,
      "count": 65532,
      "max": [
        0.14509804546833038,
        1,
        0.85882353782653809,
        1
      ],
      "min": [
        0.015686275437474251,
        0.019607843831181526,
        0.031372550874948502,
        1
      ],
      "type": "VEC4"
    },
    {
      "bufferView": 1,
      "componentType": 5126,
      "count": 65532,
      "max": [
        0.47945207357406616,
        0.47945207357406616
      ],
      "min": [
        0.0015220700297504663,
        0.0015220700297504663
      ],
      "type": "VEC2"
    },
    {
      "bufferView": 0,
      "componentType": 5125,
      "count": 65532,
      "max": [
        65531
      ],
      "min": [
        0
      ],
      "type": "SCALAR"
    },
    {
      "bufferView": 2,
      "byteOffset": 1572768,
      "componentType": 5126,
      "count": 65532,
      "max": [
        85.219131469726562,
        305.35125732421875,
        58.745098114013672
      ],
      "min": [
        -92.503486633300781,
        127.65885925292969,
        -117.7301025390625
      ],
      "type": "VEC3"
    },
    {
      "bufferView": 2,
      "byteOffset": 2359152,
      "componentType": 5126,
      "count": 65532,
      "max": [
        0.99967038631439209,
        0.99991703033447266,
        0.99986636638641357
      ],
      "min": [
        -0.99997615814208984,
        -0.99989861249923706,
        -0.99960607290267944
      ],
      "type": "VEC3"
    },
    {
      "bufferView": 3,
      "byteOffset": 1048512,
      "componentType": 5126,
      "count": 65532,
      "max": [
        0.14509804546833038,
        1,
        0.81568628549575806,
        1
      ],
      "min": [
        0.10196078568696976,
        0.29411765933036804,
        0.29411765933036804,
        1
      ],
      "type": "VEC4"
    },
    {
      "bufferView": 1,
      "byteOffset": 524256,
      "componentType": 5126,
      "count": 65532,
      "max": [
        0.66210043430328369,
        0.66362255811691284
      ],
      "min": [
        0.0015220700297504663,
        0.0015220700297504663
      ],
      "type": "VEC2"
    },
    {
      "bufferView": 0,
      "byteOffset": 262128,
      "componentType": 5125,
      "count": 65532,
      "max": [
        65531
      ],
      "min": [
        0
      ],
      "type": "SCALAR"
    },
    {
      "bufferView": 2,
      "byteOffset": 3145536,
      "componentType": 5126,
      "count": 65532,
      "max": [
        89.465675354003906,
        321.41427612304688,
        89.503471374511719
      ],
      "min": [
        -89.589775085449219,
        102.93685150146484,
        -149.72779846191406
      ],
      "type": "VEC3"
    },
    {
      "bufferView": 2,
      "byteOffset": 3931920,
      "componentType": 5126,
      "count": 65532,
      "max": [
        0.99999874830245972,
        0.99999552965164185,
        0.99999403953552246
      ],
      "min": [
        -0.9999319314956665,
        -1,
        -0.99988579750061035
      ],
      "type": "VEC3"
    },
    {
      "bufferView": 3,
      "byteOffset": 2097024,
      "componentType": 5126,
      "count": 65532,
      "max": [
        0.99215686321258545,
        1,
        1,
        1
      ],
      "min": [
        0.10588235408067703,
        0.14117647707462311,
        0.15294118225574493,
        1
      ],
      "type": "VEC4"
    },
    {
      "bufferView": 1,
      "byteOffset": 1048512,
      "componentType": 5126,
      "count": 65532,
      "max": [
        0.89193302392959595,
        0.89193302392959595
      ],
      "min": [
        0.0015220700297504663,
        0.0015220700297504663
      ],
      "type": "VEC2"
    },
    {
      "bufferView": 0,
      "byteOffset": 524256,
      "componentType": 5125,
      "count": 65532,
      "max": [
        65531
      ],
      "min": [
        0
      ],
      "type": "SCALAR"
    },
    {
      "bufferView": 2,
      "byteOffset": 4718304,
      "componentType": 5126,
      "count": 65532,
      "max": [
        178.81350708007812,
        434.49429321289062,
        62.216499328613281
      ],
      "min": [
        -165.08659362792969,
        116.85417175292969,
        -170.71664428710938
      ],
      "type": "VEC3"
    },
    {
      "bufferView": 2,
      "byteOffset": 5504688,
      "componentType": 5126,
      "count": 65532,
      "max": [
        0.99999874830245972,
        0.99999552965164185,
        0.99997717142105103
      ],
      "min": [
        -0.99999445676803589,
        -0.99998295307159424,
        -0.9999660849571228
      ],
      "type": "VEC3"
    },
    {
      "bufferView": 3,
      "byteOffset": 3145536,
      "componentType": 5126,
      "count": 65532,
      "max": [
        0.56078433990478516,
        1,
        1,
        1
      ],
      "min": [
        0.015686275437474251,
        0.031372550874948502,
        0.043137256056070328,
        1
      ],
      "type": "VEC4"
    },
    {
      "bufferView": 1,
      "byteOffset": 1572768,
      "componentType": 5126,
      "count": 65532,
      "max": [
        0.91476410627365112,
        0.9162861704826355
      ],
      "min": [
        0.0015220700297504663,
        0.0015220700297504663
      ],
      "type": "VEC2"
    },
    {
      "bufferView": 0,
      "byteOffset": 786384,
      "componentType": 5125,
      "count": 153600,
      "max": [
        65531
      ],
      "min": [
        0
      ],
      "type": "SCALAR"
    },
    {
      "bufferView": 2,
      "byteOffset": 6291072,
      "componentType": 5126,
      "count": 26593,
      "max": [
        64.869155883789062,
        322.77621459960938,
        55.801464080810547
      ],
      "min": [
        -75.072731018066406,
        138.92169189453125,
        -124.39372253417969
      ],
      "type": "VEC3"
    },
    {
      "bufferView": 2,
      "byteOffset": 6610188,
      "componentType": 5126,
      "count": 26593,
      "max": [
        0.99970942735671997,
        0.99998736381530762,
        0.99995899200439453
      ],
      "min": [
        -0.99992740154266357,
        -0.99982696771621704,
        -0.99999159574508667
      ],
      "type": "VEC3"
    },
    {
      "bufferView": 3,
      "byteOffset": 4194048,
      "componentType": 5126,
      "count": 26593,
      "max": [
        1,
        0.85490196943283081,
        1,
        1
      ],
      "min": [
        0.10980392247438431,
        0.14117647707462311,
        0,
        1
      ],
      "type": "VEC4"
    },
    {
      "bufferView": 1,
      "byteOffset": 2097024,
      "componentType": 5126,
      "count": 26593,
      "max": [
        0.91324204206466675,
        0.91476410627365112
      ],
      "min": [
        0.0015220700297504663,
        0.0015220700297504663
      ],
      "type": "VEC2"
    },
    {
      "bufferView": 0,
      "byteOffset": 1400784,
      "componentType": 5125,
      "count": 54408,
      "max": [
        26592
      ],
      "min": [
        0
      ],
      "type": "SCALAR"
    },
    {
      "bufferView": 2,
      "byteOffset": 6929304,
      "componentType": 5126,
      "count": 25848,
      "max": [
        44.990596771240234,
        207.73594665527344,
        33.228271484375
      ],
      "min": [
        -42.315231323242188,
        155.19989013671875,
        -105.54740905761719
      ],
      "type": "VEC3"
    },
    {
      "bufferView": 2,
      "byteOffset": 7239480,
      "componentType": 5126,
      "count": 25848,
      "max": [
        0.99922841787338257,
        0.99999892711639404,
        0.99910598993301392
      ],
      "min": [
        -0.99889254570007324,
        -0.99999105930328369,
        -0.99972862005233765
      ],
      "type": "VEC3"
    },
    {
      "bufferView": 3,
      "byteOffset": 4619536,
      "componentType": 5126,
      "count": 25848,
      "max": [
        0.023529412224888802,
        0.49019607901573181,
        0.85882353782653809,
        1
      ],
      "min": [
        0.023529412224888802,
        0.49019607901573181,
        0.85882353782653809,
        1
      ],
      "type": "VEC4"
    },
    {
      "bufferView": 1,
      "byteOffset": 2309768,
      "componentType": 5126,
      "count": 25848,
      "max": [
        0.9604262113571167,
        0.9604262113571167
      ],
      "min": [
        0.0015220700297504663,
        0.0015220700297504663
      ],
      "type": "VEC2"
    },
    {
      "bufferView": 0,
      "byteOffset": 1618416,
      "componentType": 5125,
      "count": 25848,
      "max": [
        25847
      ],
      "min": [
        0
      ],
      "type": "SCALAR"
    },
    {
      "bufferView": 2,
      "byteOffset": 7549656,
      "componentType": 5126,
      "count": 5961,
      "max": [
        46.99468994140625,
        313.2244873046875,
        21.463993072509766
      ],
      "min": [
        -47.05963134765625,
        191.89491271972656,
        -147.01731872558594
      ],
      "type": "VEC3"
    },
    {
      "bufferView": 2,
      "byteOffset": 7621188,
      "componentType": 5126,
      "count": 5961,
      "max": [
        0.99987167119979858,
        0.99999314546585083,
        0.99981451034545898
      ],
      "min": [
        -0.99993044137954712,
        -0.99998581409454346,
        -0.99888038635253906
      ],
      "type": "VEC3"
    },
    {
      "bufferView": 3,
      "byteOffset": 5033104,
      "componentType": 5126,
      "count": 5961,
      "max": [
        0.99607843160629272,
        0.82352942228317261,
        0.46274510025978088,
        1
      ],
      "min": [
        0.99215686321258545,
        0.81960785388946533,
        0.45490196347236633,
        1
      ],
      "type": "VEC4"
    },
    {
      "bufferView": 1,
      "byteOffset": 2516552,
      "componentType": 5126,
      "count": 5961,
      "max": [
        0.98477929830551147,
        0.99847793579101562
      ],
      "min": [
        0.0015220700297504663,
        0.0015220700297504663
      ],
      "type": "VEC2"
    },
    {
      "bufferView": 0,
      "byteOffset": 1721808,
      "componentType": 5125,
      "count": 20991,
      "max": [
        5960
      ],
      "min": [
        0
      ],
      "type": "SCALAR"
    }
  ],
  "asset": {
    "extras": {
      "author": "Forest Run Forever (https://sketchfab.com/2w)",
      "license": "CC-BY-4.0 (http://creativecommons.org/licenses/by/4.0/)",
      "source": "https://sketchfab.com/3d-models/mushrooms-undersides-c67f7d03fdbf40ea9091178d3d014614",
      "title": "Mushroom`s Undersides"
    },
    "generator": "Sketchfab-8.61.0",
    "version": "2.0"
  },
  "bufferViews": [
    {
      "buffer": 0,
      "byteLength": 1805772,
      "byteOffset": 0,
      "name": "floatBufferViews",
      "target": 34963
    },
    {
      "buffer": 0,
      "byteLength": 2564240,
      "byteOffset": 1805772,
      "byteStride": 8,
      "name": "floatBufferViews",
      "target": 34962
    },
    {
      "buffer": 0,
      "byteLength": 7692720,
      "byteOffset": 4370012,
      "byteStride": 12,
      "name": "floatBufferViews",
      "target": 34962
    },
    {
      "buffer": 0,
      "byteLength": 5128480,
      "byteOffset": 12062732,
      "byteStride": 16,
      "name": "floatBufferViews",
      "target": 34962
    }
  ],
  "buffers": [
    {
      "byteLength": 17191212,
      "uri": "scene.bin"
    }
  ],
  "images": [
    {
      "uri": "textures/material0_baseColor.jpeg"
    }
  ],
  "materials": [
    {
      "doubleSided": true,
      "name": "material0",
      "pbrMetallicRoughness": {
        "baseColorFactor": [
          1,
          1,
          1,
          1
        ],
        "baseColorTexture": {
          "index": 0,
          "texCoord": 0
        },
        "metallicFactor": 0.3187881098,
        "roughnessFactor": 1
      }
    },
    {
      "doubleSided": true,
      "emissiveFactor": [
        0,
        0,
        0
      ],
      "name": "material1",
      "pbrMetallicRoughness": {
        "baseColorFactor": [
          1,
          1,
          1,
          1
        ],
        "baseColorTexture": {
          "index": 0,
          "texCoord": 0
        },
        "metallicFactor": 0,
        "roughnessFactor": 0.2578125
      }
    },
    {
      "doubleSided": true,
      "emissiveFactor": [
        1,
        0.38074665961070764,
        0
      ],
      "name": "material2",
      "pbrMetallicRoughness": {
        "baseColorFactor": [
          1,
          1,
          1,
          1
        ],
        "baseColorTexture": {
          "index": 0,
          "texCoord": 0
        },
        "metallicFactor": 0.38348485773259944,
        "roughnessFactor": 0.46833334258108428
      }
    }
  ],
  "meshes": [
    {
      "name": "grass_low_material0_0",
      "primitives": [
        {
          "attributes": {
            "COLOR_0": 2,
            "NORMAL": 1,
            "POSITION": 0,
            "TEXCOORD_0": 3
          },
          "indices": 4,
          "material": 0,
          "mode": 4
        }
      ]
    },
    {
      "name": "grass_low_material0_0",
      "primitives": [
        {
          "attributes": {
            "COLOR_0": 7,
            "NORMAL": 6,
            "POSITION": 5,
            "TEXCOORD_0": 8
          },
          "indices": 9,
          "material": 0,
          "mode": 4
        }
      ]
    },
    {
      "name": "grass_low_material0_0",
      "primitives": [
        {
          "attributes": {
            "COLOR_0": 12,
            "NORMAL": 11,
            "POSITION": 10,
            "TEXCOORD_0": 13
          },
          "indices": 14,
          "material": 0,
          "mode": 4
        }
      ]
    },
    {
      "name": "grass_low_material0_0",
      "primitives": [
        {
          "attributes": {
            "COLOR_0": 17,
            "NORMAL": 16,
            "POSITION": 15,
            "TEXCOORD_0": 18
          },
          "indices": 19,
          "material": 0,
          "mode": 4
        }
      ]
    },
    {
      "name": "grass_low_material0_0",
      "primitives": [
        {
          "attributes": {
            "COLOR_0": 22,
            "NORMAL": 21,
            "POSITION": 20,
            "TEXCOORD_0": 23
          },
          "indices": 24,
          "material": 0,
          "mode": 4
        }
      ]
    },
    {
      "name": "grass_low_material1_0",
      "primitives": [
        {
          "attributes": {
            "COLOR_0": 27,
            "NORMAL": 26,
            "POSITION": 25,
            "TEXCOORD_0": 28
          },
          "indices": 29,
          "material": 1,
          "mode": 4
        }
      ]
    },
    {
      "name": "grass_low_material2_0",
      "primitives": [
        {
          "attributes": {
            "COLOR_0": 32,
            "NORMAL": 31,
            "POSITION": 30,
            "TEXCOORD_0": 33
          },
          "indices": 34,
          "material": 2,
          "mode": 4
        }
      ]
    }
  ],
  "nodes": [
    {
      "children": [
        1
      ],
      "name": "RootNode (gltf orientation matrix)",
      "rotation": [
        -0.70710678118654746,
        -0,
        -0,
        0.70710678118654757
      ]
    },
    {
      "children": [
        2
      ],
      "name": "RootNode (model correction matrix)"
    },
    {
      "children": [
        3
      ],
      "matrix": [
        1,
        0,
        0,
        0,
        0,
        0,
        1,
        0,
        0,
        -1,
        0,
        0,
        0,
        0,
        0,
        1
      ],
      "name": "67b6b13fd9a04add9f26b6fa9e844789.fbx"
    },
    {
      "children": [
        4
      ],
      "name": "RootNode"
    },
    {
      "children": [
        5,
        6,
        7,
        8,
        9,
        10,
        11
      ],
      "name": "grass_low"
    },
    {
      "mesh": 0,
      "name": "grass_low_material0_0"
    },
    {
      "mesh": 1,
      "name": "grass_low_material0_0"
    },
    {
      "mesh": 2,
      "name": "grass_low_material0_0"
    },
    {
      "mesh": 3,
      "name": "grass_low_material0_0"
    },
    {
      "mesh": 4,
      "name": "grass_low_material0_0"
    },
    {
      "mesh": 5,
      "name": "grass_low_material1_0"
    },
    {
      "mesh": 6,
      "name": "grass_low_material2_0"
    }
  ],
  "samplers": [
    {
      "magFilter": 9729,
      "minFilter": 9987,
      "wrapS": 10497,
      "wrapT": 10497
    }
  ],
  "scene": 0,
  "scenes": [
    {
      "name": "OSG_Scene",
      "nodes": [
        0
      ]
    }
  ],
  "textures": [
    {
      "sampler": 0,
      "source": 0
    }
  ]
}

